<svg id="visual" viewBox="0 0 450 960" width="450" height="960" xmlns="http://www.w3.org/2000/svg" xmlns:xlink="http://www.w3.org/1999/xlink" version="1.1"><rect x="0" y="0" width="450" height="960" fill="#F3EDE1"></rect><path d="M370 960L374 937.2C378 914.3 386 868.7 381 823C376 777.3 358 731.7 342.5 686C327 640.3 314 594.7 305.7 548.8C297.3 503 293.7 457 308.2 411.2C322.7 365.3 355.3 319.7 365.8 274C376.3 228.3 364.7 182.7 351.3 137C338 91.3 323 45.7 315.5 22.8L308 0L450 0L450 22.8C450 45.7 450 91.3 450 137C450 182.7 450 228.3 450 274C450 319.7 450 365.3 450 411.2C450 457 450 503 450 548.8C450 594.7 450 640.3 450 686C450 731.7 450 777.3 450 823C450 868.7 450 914.3 450 937.2L450 960Z" fill="#333d29" stroke-linecap="round" stroke-linejoin="miter"></path></svg>