<svg id="visual" viewBox="0 0 450 960" width="450" height="960" xmlns="http://www.w3.org/2000/svg" xmlns:xlink="http://www.w3.org/1999/xlink" version="1.1"><rect x="0" y="0" width="450" height="960" fill="#F3EDE1"></rect><path d="M82 0L78 22.8C74 45.7 66 91.3 71 137C76 182.7 94 228.3 109.5 274C125 319.7 138 365.3 146.3 411.2C154.7 457 158.3 503 143.8 548.8C129.3 594.7 96.7 640.3 86.2 686C75.7 731.7 87.3 777.3 100.7 823C114 868.7 129 914.3 136.5 937.2L144 960L0 960L0 937.2C0 914.3 0 868.7 0 823C0 777.3 0 731.7 0 686C0 640.3 0 594.7 0 548.8C0 503 0 457 0 411.2C0 365.3 0 319.7 0 274C0 228.3 0 182.7 0 137C0 91.3 0 45.7 0 22.8L0 0Z" fill="#333d29" stroke-linecap="round" stroke-linejoin="miter"></path></svg>